<svg xmlns="http://www.w3.org/2000/svg" viewBox="0 0 30 30">
    <defs>
        <style>.cls-1{fill:#fff;fill-rule:evenodd;}</style>
    </defs>
    <path class="cls-1" d="M4.6,3.83A14.45,14.45,0,0,1,14.39,0V0A14.44,14.44,0,1,1,.5,18.39L6,20.68a4.09,4.09,0,0,0,8.09-.81v-.19L19,16.18h.12A5.45,5.45,0,1,0,17.07,5.7a5.44,5.44,0,0,0-3.36,5v.06l-3.44,5H10a4,4,0,0,0-2.3.72L0,13.28A14.43,14.43,0,0,1,4.6,3.83ZM9.05,21.91l-1.78-.73a3.07,3.07,0,0,0,2.87,1.74A3.1,3.1,0,0,0,12.89,21a3,3,0,0,0,.16-1.74,3.12,3.12,0,0,0-.82-1.55A3.11,3.11,0,0,0,9,17l1.84.76a2.26,2.26,0,0,1,0,4.14,2.27,2.27,0,0,1-1.7,0ZM22.18,8.71a3.71,3.71,0,0,1,.61,2,3.62,3.62,0,0,1-5.65,3,3.62,3.62,0,0,1,1.31-6.57,3.61,3.61,0,0,1,3.73,1.54Zm-5.29.5A2.73,2.73,0,0,0,20.68,13a2.65,2.65,0,0,0,1-1.22,2.73,2.73,0,0,0-2-3.72,2.72,2.72,0,0,0-1.57.16A2.68,2.68,0,0,0,16.89,9.21Z"/>
</svg>